#define richtext_width 48
#define richtext_height 48
static unsigned char richtext_bits[] = {
   0x00, 0x00, 0x00, 0x00, 0x00, 0x00, 0x00, 0x00, 0x00, 0x00, 0x00, 0x00,
   0x00, 0x00, 0x00, 0x00, 0x00, 0x00, 0x00, 0x00, 0x00, 0x00, 0x00, 0x00,
   0x00, 0x00, 0x00, 0x00, 0x00, 0x00, 0x00, 0x00, 0x00, 0x00, 0x00, 0x00,
   0x00, 0x00, 0x00, 0x00, 0x00, 0x00, 0x00, 0x00, 0x00, 0x00, 0x00, 0x00,
   0x00, 0x00, 0x00, 0x00, 0x00, 0x00, 0x00, 0x00, 0x00, 0x00, 0x00, 0x00,
   0x00, 0x00, 0x00, 0x00, 0x00, 0x00, 0x00, 0x00, 0x00, 0x00, 0x00, 0x00,
   0x00, 0x00, 0x00, 0x00, 0x00, 0x00, 0x00, 0x00, 0x00, 0x00, 0x00, 0x00,
   0x00, 0x00, 0x00, 0x00, 0x00, 0x00, 0x00, 0x00, 0x00, 0x00, 0x00, 0x07,
   0x00, 0x00, 0x00, 0x00, 0xc0, 0x06, 0x00, 0x00, 0x00, 0x04, 0xe0, 0x00,
   0x00, 0x00, 0x00, 0x06, 0xe0, 0x00, 0x00, 0x00, 0x00, 0x07, 0xe0, 0x00,
   0x00, 0xbc, 0x83, 0x3f, 0xfc, 0x07, 0x00, 0xf8, 0x03, 0x07, 0xe0, 0x00,
   0x00, 0xf8, 0x03, 0x07, 0xe0, 0x00, 0x00, 0x78, 0x00, 0x07, 0xe0, 0x00,
   0x00, 0x38, 0x00, 0x07, 0xe0, 0x00, 0x00, 0x38, 0x00, 0x07, 0xe0, 0x00,
   0x00, 0x38, 0x00, 0x07, 0xe0, 0x00, 0x00, 0x38, 0x00, 0x07, 0xe0, 0x00,
   0x00, 0x38, 0x00, 0x07, 0xe0, 0x00, 0x60, 0x38, 0x00, 0x07, 0xe0, 0x00,
   0xf0, 0x38, 0x00, 0x26, 0xe0, 0x00, 0xf0, 0x7c, 0x00, 0x1c, 0xf0, 0x01,
   0x60, 0x00, 0x00, 0x00, 0x00, 0x00, 0x00, 0x00, 0x00, 0x00, 0x00, 0x00,
   0x00, 0x00, 0x00, 0x00, 0x00, 0x00, 0x00, 0x00, 0x00, 0x00, 0x00, 0x00,
   0x00, 0x00, 0x00, 0x00, 0x00, 0x00, 0x00, 0x00, 0x00, 0x00, 0x00, 0x00,
   0x00, 0x00, 0x00, 0x00, 0x00, 0x00, 0x00, 0x00, 0x00, 0x00, 0x00, 0x00,
   0x00, 0x00, 0x00, 0x00, 0x00, 0x00, 0x00, 0x00, 0x00, 0x00, 0x00, 0x00,
   0x00, 0x00, 0x00, 0x00, 0x00, 0x00, 0x00, 0x00, 0x00, 0x00, 0x00, 0x00,
   0x00, 0x00, 0x00, 0x00, 0x00, 0x00, 0x00, 0x00, 0x00, 0x00, 0x00, 0x00,
   0x00, 0x00, 0x00, 0x00, 0x00, 0x00, 0x00, 0x00, 0x00, 0x00, 0x00, 0x00};
